<svg viewBox="0 0 500 200" xmlns="http://www.w3.org/2000/svg" aria-label="CircuitKIT pipeline: Discovery → Circuit (serialized) → Evaluation → Application">
  <rect width="500" height="200" fill="#fff"/>
  <rect x="20" y="70" width="100" height="60" rx="5" fill="none" stroke="#0d7377" stroke-width="1.5"/>
  <text x="70" y="97" text-anchor="middle" font-family="Georgia,serif" font-size="12" fill="#0d7377">Discovery</text>
  <text x="70" y="114" text-anchor="middle" font-family="monospace" font-size="9" fill="#666">EAP · ACDC</text>
  <rect x="195" y="60" width="110" height="80" rx="5" fill="none" stroke="#a05c00" stroke-width="1.5" stroke-dasharray="5,3"/>
  <text x="250" y="87" text-anchor="middle" font-family="Georgia,serif" font-size="12" fill="#a05c00">Circuit</text>
  <text x="250" y="104" text-anchor="middle" font-family="monospace" font-size="9" fill="#888">serialized</text>
  <text x="250" y="120" text-anchor="middle" font-family="monospace" font-size="9" fill="#888">typed repr.</text>
  <rect x="380" y="42" width="100" height="40" rx="4" fill="none" stroke="#5c1aaa" stroke-width="1.5"/>
  <text x="430" y="67" text-anchor="middle" font-family="Georgia,serif" font-size="11" fill="#5c1aaa">Evaluation</text>
  <rect x="380" y="118" width="100" height="40" rx="4" fill="none" stroke="#1a6e3c" stroke-width="1.5"/>
  <text x="430" y="143" text-anchor="middle" font-family="Georgia,serif" font-size="11" fill="#1a6e3c">Application</text>
  <path d="M120 100 H190" stroke="#999" stroke-width="1.5" fill="none" marker-end="url(#a1)"/>
  <path d="M305 85 Q345 85 375 65" stroke="#999" stroke-width="1.5" fill="none" marker-end="url(#a1)"/>
  <path d="M305 115 Q345 115 375 135" stroke="#999" stroke-width="1.5" fill="none" marker-end="url(#a1)"/>
  <text x="430" y="172" text-anchor="middle" font-family="monospace" font-size="8" fill="#666">prune · steer · edit · fine-tune</text>
  <text x="250" y="175" text-anchor="middle" font-family="monospace" font-size="9" fill="#a05c00">↑ compare across discovery methods</text>
  <defs>
    <marker id="a1" markerWidth="7" markerHeight="7" refX="6" refY="3.5" orient="auto">
      <path d="M0,0 L0,7 L7,3.5 Z" fill="#999"/>
    </marker>
  </defs>
</svg>
